# xmcd
#
# Track frame offsets:
#	150
#	15162
#	28622
#	41067
#	56442
#	70515
#	85772
#	96317
#	109110
#	119320
#	130397
#	142990
#	155197
#	169775
#	183217
#	197362
#	212687
#	230884
#	245222
#	259459
#
# Disc length: 3620 seconds
#
# Revision: 0
# Processed by: cddbd v1.5.2PL0 Copyright (c) Steve Scherf et al.
# Submitted via: EasyCDDAExtractor 11.1.0.1
#
DISCID=190e2214
DTITLE=The Full Moon Guitars - Love country
DYEAR=1900
DGENRE=country
TTITLE0=Don't it make my brown eyes blue
TTITLE1=Lean on me
TTITLE2=I will always love you
TTITLE3=By the time I get to Phoenix
TTITLE4=Annie's song
TTITLE5=Fire and rain
TTITLE6=Ruby don't take your love to town
TTITLE7=Wichita lineman
TTITLE8=I love you because
TTITLE9=Homeward bound
TTITLE10=Vicent
TTITLE11=Crazy
TTITLE12=Are you lonesome tonight
TTITLE13=Can't help falling in love
TTITLE14=Always on my mind
TTITLE15=You've got a friend
TTITLE16=Stand by your man
TTITLE17=The wind beneath my wings
TTITLE18=Island in the stream
TTITLE19=He'll have to go
EXTD=
EXTT0=
EXTT1=
EXTT2=
EXTT3=
EXTT4=
EXTT5=
EXTT6=
EXTT7=
EXTT8=
EXTT9=
EXTT10=
EXTT11=
EXTT12=
EXTT13=
EXTT14=
EXTT15=
EXTT16=
EXTT17=
EXTT18=
EXTT19=
PLAYORDER=
